<svg width="243" height="73" viewBox="0 0 243 73" fill="none" xmlns="http://www.w3.org/2000/svg">
<path d="M27.2 47C26.8333 45.8 26.4167 44.5667 25.95 43.3C25.5167 42.0333 25.0833 40.7667 24.65 39.5H11.15C10.7167 40.7667 10.2667 42.0333 9.8 43.3C9.36667 44.5667 8.96667 45.8 8.6 47H0.5C1.8 43.2667 3.03333 39.8167 4.2 36.65C5.36667 33.4833 6.5 30.5 7.6 27.7C8.73333 24.9 9.83333 22.25 10.9 19.75C12 17.2167 13.1333 14.75 14.3 12.35H21.75C22.8833 14.75 24 17.2167 25.1 19.75C26.2 22.25 27.3 24.9 28.4 27.7C29.5333 30.5 30.6833 33.4833 31.85 36.65C33.0167 39.8167 34.25 43.2667 35.55 47H27.2ZM17.85 20.2C17.6833 20.7 17.4333 21.3833 17.1 22.25C16.7667 23.1167 16.3833 24.1167 15.95 25.25C15.5167 26.3833 15.0333 27.6333 14.5 29C14 30.3667 13.4833 31.8 12.95 33.3H22.8C22.2667 31.8 21.75 30.3667 21.25 29C20.75 27.6333 20.2667 26.3833 19.8 25.25C19.3667 24.1167 18.9833 23.1167 18.65 22.25C18.3167 21.3833 18.05 20.7 17.85 20.2ZM60.9352 12.35H68.7352V47H60.9352V32.3H47.8352V47H40.0352V12.35H47.8352V25.6H60.9352V12.35ZM83.3039 29.65C83.3039 31.35 83.5039 32.8833 83.9039 34.25C84.3372 35.6167 84.9372 36.8 85.7039 37.8C86.5039 38.7667 87.4706 39.5167 88.6039 40.05C89.7372 40.5833 91.0372 40.85 92.5039 40.85C93.9372 40.85 95.2206 40.5833 96.3539 40.05C97.5206 39.5167 98.4872 38.7667 99.2539 37.8C100.054 36.8 100.654 35.6167 101.054 34.25C101.487 32.8833 101.704 31.35 101.704 29.65C101.704 27.95 101.487 26.4167 101.054 25.05C100.654 23.65 100.054 22.4667 99.2539 21.5C98.4872 20.5 97.5206 19.7333 96.3539 19.2C95.2206 18.6667 93.9372 18.4 92.5039 18.4C91.0372 18.4 89.7372 18.6833 88.6039 19.25C87.4706 19.7833 86.5039 20.55 85.7039 21.55C84.9372 22.5167 84.3372 23.7 83.9039 25.1C83.5039 26.4667 83.3039 27.9833 83.3039 29.65ZM109.754 29.65C109.754 32.6167 109.304 35.2333 108.404 37.5C107.537 39.7333 106.337 41.6167 104.804 43.15C103.271 44.65 101.437 45.7833 99.3039 46.55C97.2039 47.3167 94.9372 47.7 92.5039 47.7C90.1372 47.7 87.9039 47.3167 85.8039 46.55C83.7039 45.7833 81.8706 44.65 80.3039 43.15C78.7372 41.6167 77.5039 39.7333 76.6039 37.5C75.7039 35.2333 75.2539 32.6167 75.2539 29.65C75.2539 26.6833 75.7206 24.0833 76.6539 21.85C77.5872 19.5833 78.8372 17.6833 80.4039 16.15C82.0039 14.6167 83.8372 13.4667 85.9039 12.7C88.0039 11.9333 90.2039 11.55 92.5039 11.55C94.8706 11.55 97.1039 11.9333 99.2039 12.7C101.304 13.4667 103.137 14.6167 104.704 16.15C106.271 17.6833 107.504 19.5833 108.404 21.85C109.304 24.0833 109.754 26.6833 109.754 29.65Z" fill="white"/>
<path d="M122.2 12.475C124.783 12.475 126.767 12.9333 128.15 13.85C129.533 14.75 130.225 16.2333 130.225 18.3C130.225 20.3833 129.525 21.8917 128.125 22.825C126.725 23.7417 124.725 24.2 122.125 24.2H120.9V30H117V12.925C117.85 12.7583 118.75 12.6417 119.7 12.575C120.65 12.5083 121.483 12.475 122.2 12.475ZM122.45 15.8C122.167 15.8 121.883 15.8083 121.6 15.825C121.333 15.8417 121.1 15.8583 120.9 15.875V20.875H122.125C123.475 20.875 124.492 20.6917 125.175 20.325C125.858 19.9583 126.2 19.275 126.2 18.275C126.2 17.7917 126.108 17.3917 125.925 17.075C125.758 16.7583 125.508 16.5083 125.175 16.325C124.858 16.125 124.467 15.9917 124 15.925C123.533 15.8417 123.017 15.8 122.45 15.8ZM133.089 30V12.675H136.964V22.9C137.564 22 138.206 21.0667 138.889 20.1C139.572 19.1167 140.256 18.175 140.939 17.275C141.639 16.3583 142.322 15.5 142.989 14.7C143.656 13.9 144.264 13.225 144.814 12.675H147.989V30H144.139V18.65C142.672 20.3667 141.289 22.1917 139.989 24.125C138.689 26.0583 137.481 28.0167 136.364 30H133.089Z" fill="#27AE60"/>
</svg>
